# xmcd
#
# Track frame offsets:
#	150
#	4487
#	22051
#	37039
#	52875
#	57659
#	61389
#	71637
#	88812
#	94330
#	99179
#	110160
#	120703
#	130212
#	145677
#	155877
#	166327
#	181364
#	193673
#	204246
#	218766
#	235635
#	246456
#	258504
#	276030
#	283932
#
# Disc length: 4039 seconds
#
# Revision: 0
# Processed by: cddbd v1.5.1PL2 Copyright (c) Steve Scherf et al.
# Submitted via: dBpowerAMP V4.0
#
DISCID=900fc51a
DTITLE=kanye west - we major this mixtape
DYEAR=2005
DGENRE=Gangsta rap
TTITLE0=Orientatio
TTITLE1=We major (Nas and Really Doe)
TTITLE2=Touch the sky (Lupe Fiasco)
TTITLE3=They say (Common and John Legend)
TTITLE4=Make her feel good remix (Teairra Mari)
TTITLE5=Put you on the game freestyle
TTITLE6=Crack Music (THE GAME)
TTITLE7=Drive slow (Paul wall and GLC)
TTITLE8=Brand New (Rhymefest)
TTITLE9=Big Spender
TTITLE10=Gold Digger (Jamie Foxx)
TTITLE11=Number one (John Legend)
TTITLE12=Bring me down (Brandy)
TTITLE13=Gone (Cam'ron and Consequence)
TTITLE14=Grown Man PT2 (Young Gunz and John Legend)
TTITLE15=Pusha Man (Bump J)
TTITLE16=Diamonds from Sierra Leone (Jay Z)
TTITLE17=The Food (Common)
TTITLE18=Soulfood (John Legend and Consequence)
TTITLE19=You're my type
TTITLE20=UH (Go Getters)
TTITLE21=Whole life
TTITLE22=Oh drama (Stat quo)
TTITLE23=Dreams Freestyle
TTITLE24=Used to love you Freestyle
TTITLE25=One night extravaganza (Jamie Foxx)
EXTD=
EXTT0=
EXTT1=
EXTT2=
EXTT3=
EXTT4=
EXTT5=
EXTT6=
EXTT7=
EXTT8=
EXTT9=
EXTT10=
EXTT11=
EXTT12=
EXTT13=
EXTT14=
EXTT15=
EXTT16=
EXTT17=
EXTT18=
EXTT19=
EXTT20=
EXTT21=
EXTT22=
EXTT23=
EXTT24=
EXTT25=
PLAYORDER=
